<?xml version="1.0" encoding="UTF-8" standalone="no"?>
<!-- Created with Inkscape (http://www.inkscape.org/) -->

<svg
   xmlns:dc="http://purl.org/dc/elements/1.1/"
   xmlns:cc="http://creativecommons.org/ns#"
   xmlns:rdf="http://www.w3.org/1999/02/22-rdf-syntax-ns#"
   xmlns:svg="http://www.w3.org/2000/svg"
   xmlns="http://www.w3.org/2000/svg"
   xmlns:sodipodi="http://sodipodi.sourceforge.net/DTD/sodipodi-0.dtd"
   xmlns:inkscape="http://www.inkscape.org/namespaces/inkscape"
   id="svg3103"
   version="1.1"
   inkscape:version="0.48.4 r9939"
   width="16"
   height="16"
   sodipodi:docname="branding.svg">
  <metadata
     id="metadata3109">
    <rdf:RDF>
      <cc:Work
         rdf:about="">
        <dc:format>image/svg+xml</dc:format>
        <dc:type
           rdf:resource="http://purl.org/dc/dcmitype/StillImage" />
        <dc:title></dc:title>
      </cc:Work>
    </rdf:RDF>
  </metadata>
  <defs
     id="defs3107" />
  <sodipodi:namedview
     pagecolor="#ffffff"
     bordercolor="#666666"
     borderopacity="1"
     objecttolerance="10"
     gridtolerance="10"
     guidetolerance="10"
     inkscape:pageopacity="0"
     inkscape:pageshadow="2"
     inkscape:window-width="1366"
     inkscape:window-height="715"
     id="namedview3105"
     showgrid="false"
     inkscape:zoom="23.692237"
     inkscape:cx="13.383623"
     inkscape:cy="13.478265"
     inkscape:window-x="0"
     inkscape:window-y="30"
     inkscape:window-maximized="1"
     inkscape:current-layer="svg3103" />
  <g
     id="g3113"
     transform="matrix(0.07117082,0,0,0.07048411,-0.99746922,-0.97887667)">
    <path
       style="fill:#eb1c39"
       d="M 18.4,237.6 C 11.944141,231.14414 7.4436452,241.66794 77.030695,100.5 88.146448,77.95 101.87505,49.96811 107.5387,38.318023 118.70499,15.349036 119.81513,14 127.55034,14 c 2.81726,0 4.42512,0.775458 7.04966,3.4 6.18996,6.189961 7.32915,3.250987 -33.20685,85.66992 C 58.172223,190.94794 48.528127,210.76159 41.801555,225.5 c -2.761205,6.05 -5.485264,11.57337 -6.053465,12.27417 -0.5682,0.70079 -0.823523,1.48373 -0.567385,1.73987 0.256139,0.25614 4.451599,-4.47738 9.323244,-10.51894 L 53.361486,218.01046 144.43074,217.75523 235.5,217.5 221,214 206.5,210.5 173.27385,144 c -18.27438,-36.575 -33.23688,-66.199218 -33.25,-65.831596 -0.0131,0.367622 1.77615,7.211949 3.97615,15.209614 2.2,7.997662 4,15.249062 4,16.114202 0,2.50812 -35.94853,75.76123 -38.44119,78.33247 -3.02516,3.12052 -9.23289,3.91233 -13.47484,1.71873 C 92.902377,187.89816 90,182.98972 90,179.25435 c 0,-0.99544 6.802784,-15.74739 15.1173,-32.78212 8.31451,-17.03473 20.16208,-41.34116 26.32792,-54.014291 7.59687,-15.614442 12.11544,-23.753792 14.01756,-25.25 3.37529,-2.655004 10.01262,-2.964109 13.35643,-0.622018 1.42984,1.001504 16.80472,30.665097 41.7225,80.497499 40.8178,81.63042 41.08593,82.2502 38.2636,88.44452 C 236.20089,241.24404 241.18942,241 126.94966,241 L 21.8,241 18.4,237.6 z"
       id="path3117"
       inkscape:connector-curvature="0" />
    <path
       style="fill:#a61c29"
       d="m 35.151746,239.5 c 0.215348,-0.55 2.584058,-5.6125 5.2638,-11.25 l 4.872258,-10.25 3.978543,0 c 4.563126,0 5.143041,-1.2903 -5.168565,11.5 -7.053477,8.74899 -9.547987,11.53739 -8.946036,10 z m 172.925964,-25.34769 -1.96295,-3.84768 13.69262,3.35386 c 7.53094,1.84462 14.14262,3.54055 14.69262,3.76874 0.55,0.22818 -4.72835,0.4504 -11.72968,0.49382 L 210.04065,218 208.07771,214.15231 z M 144.46062,95.254421 c -2.17834,-8.098384 -4.07965,-15.406103 -4.22514,-16.239377 -0.14548,-0.833274 2.45626,4.094867 5.78166,10.951425 5.59041,11.526731 5.95632,12.695141 4.85424,15.500001 -0.65556,1.66844 -1.47503,3.36625 -1.82103,3.77291 -0.34601,0.40665 -2.41138,-5.88658 -4.58973,-13.984959 z"
       id="path3115"
       inkscape:connector-curvature="0" />
  </g>
</svg>
